<svg width="1440" height="196" viewBox="0 0 1440 196" fill="none" xmlns="http://www.w3.org/2000/svg">
<path d="M39.0137 195.806C11.9694 195.806 -9.44792 187.082 -25.2383 169.634C-40.9414 152.186 -48.793 128.369 -48.793 98.1846C-48.793 68.1742 -40.8978 44.445 -25.1074 26.9971C-9.22982 9.46191 12.1439 0.694336 39.0137 0.694336C60.998 0.694336 79.5365 6.97559 94.6289 19.5381C109.721 32.0133 118.314 48.3708 120.408 68.6104H87.1699C84.9889 56.7458 79.4492 47.2367 70.5508 40.083C61.7396 32.9294 51.2272 29.3525 39.0137 29.3525C22.7871 29.3525 9.83203 35.5902 0.148438 48.0654C-9.44792 60.4535 -14.2461 77.1598 -14.2461 98.1846C-14.2461 119.384 -9.44792 136.177 0.148438 148.565C9.74479 160.953 22.7435 167.147 39.1445 167.147C51.6198 167.147 62.0885 163.963 70.5508 157.595C79.1003 151.139 84.6836 142.241 87.3008 130.899H120.408C117.442 151.139 108.718 167.017 94.2363 178.532C79.7546 190.048 61.347 195.806 39.0137 195.806ZM270.63 192.665L254.534 143.854H185.048L168.952 192.665H134.143L201.143 3.83496H239.223L306.223 192.665H270.63ZM219.333 37.2041L192.899 117.813H246.551L220.249 37.2041H219.333ZM451.341 164.138V192.665H331.866V3.83496H365.628V164.138H451.341ZM675.76 192.665H645.4V58.665H644.484L589.916 191.095H566.885L512.316 58.665H511.4V192.665H480.91V3.83496H520.037L577.877 146.341H578.924L636.764 3.83496H675.76V192.665ZM883.554 56.0479L844.95 192.665H813.152L762.509 3.83496H797.579L830.294 146.864H831.341L869.29 3.83496H899.126L937.075 146.864H938.122L970.837 3.83496H1005.91L955.265 192.665H923.466L884.862 56.0479H883.554ZM1139.38 192.665L1123.28 143.854H1053.8L1037.7 192.665H1002.89L1069.89 3.83496H1107.97L1174.97 192.665H1139.38ZM1088.08 37.2041L1061.65 117.813H1115.3L1089 37.2041H1088.08ZM1320.09 164.138V192.665H1200.62V3.83496H1234.38V164.138H1320.09ZM1383.42 192.665H1349.66V3.83496H1383.42V92.165H1384.6L1459.97 3.83496H1498.84L1426.08 87.585L1504.47 192.665H1463.38L1402 110.224L1383.42 131.946V192.665Z" fill="red"/>
</svg>
