<svg width="1440" height="635" viewBox="0 0 1440 635" fill="none" xmlns="http://www.w3.org/2000/svg">
<rect opacity="0.5" x="1" width="1440" height="583" fill="url(#paint0_linear_80_1975)" fill-opacity="0.8"/>
<path d="M39.0137 634.806C11.9694 634.806 -9.44792 626.082 -25.2383 608.634C-40.9414 591.186 -48.793 567.369 -48.793 537.185C-48.793 507.174 -40.8978 483.445 -25.1074 465.997C-9.22982 448.462 12.1439 439.694 39.0137 439.694C60.998 439.694 79.5365 445.976 94.6289 458.538C109.721 471.013 118.314 487.371 120.408 507.61H87.1699C84.9889 495.746 79.4492 486.237 70.5508 479.083C61.7396 471.929 51.2272 468.353 39.0137 468.353C22.7871 468.353 9.83203 474.59 0.148438 487.065C-9.44792 499.453 -14.2461 516.16 -14.2461 537.185C-14.2461 558.384 -9.44792 575.177 0.148438 587.565C9.74479 599.953 22.7435 606.147 39.1445 606.147C51.6198 606.147 62.0885 602.963 70.5508 596.595C79.1003 590.139 84.6836 581.241 87.3008 569.899H120.408C117.442 590.139 108.718 606.017 94.2363 617.532C79.7546 629.048 61.347 634.806 39.0137 634.806ZM270.63 631.665L254.534 582.854H185.048L168.952 631.665H134.143L201.143 442.835H239.223L306.223 631.665H270.63ZM219.333 476.204L192.899 556.813H246.551L220.249 476.204H219.333ZM451.341 603.138V631.665H331.866V442.835H365.628V603.138H451.341ZM675.76 631.665H645.4V497.665H644.484L589.916 630.095H566.885L512.316 497.665H511.4V631.665H480.91V442.835H520.037L577.877 585.341H578.924L636.764 442.835H675.76V631.665ZM883.554 495.048L844.95 631.665H813.152L762.509 442.835H797.579L830.294 585.864H831.341L869.29 442.835H899.126L937.075 585.864H938.122L970.837 442.835H1005.91L955.265 631.665H923.466L884.862 495.048H883.554ZM1139.38 631.665L1123.28 582.854H1053.8L1037.7 631.665H1002.89L1069.89 442.835H1107.97L1174.97 631.665H1139.38ZM1088.08 476.204L1061.65 556.813H1115.3L1089 476.204H1088.08ZM1320.09 603.138V631.665H1200.62V442.835H1234.38V603.138H1320.09ZM1383.42 631.665H1349.66V442.835H1383.42V531.165H1384.6L1459.97 442.835H1498.84L1426.08 526.585L1504.47 631.665H1463.38L1402 549.224L1383.42 570.946V631.665Z" fill="white"/>
<defs>
<linearGradient id="paint0_linear_80_1975" x1="721" y1="0" x2="721" y2="977.272" gradientUnits="userSpaceOnUse">
<stop offset="0.153512" stop-color="white"/>
<stop offset="1" stop-color="#E5E7EB"/>
</linearGradient>
</defs>
</svg>
