<svg width="173" height="172" viewBox="0 0 173 172" fill="none" xmlns="http://www.w3.org/2000/svg">
<g opacity="0.3" clip-path="url(#clip0_80_2209)" filter="url(#filter0_f_80_2209)">
<circle cx="86.3573" cy="85.8761" r="53.94" fill="white"/>
<path d="M141.882 105.786L146.475 102.265L144.258 96.9194L148.242 92.7258L145.224 87.7903L148.505 83.03L144.75 78.6368L147.234 73.4163L142.828 69.6709L144.463 64.1241L139.532 61.1095L140.28 55.3744L134.939 53.1542L134.794 47.3771L129.173 46.019L128.117 40.3268L122.354 39.8677L120.427 34.4189L114.664 34.8805L111.898 29.799L106.274 31.1529L102.754 26.5595L97.4077 28.7771L93.2141 24.7926L88.2785 27.8107L83.5183 24.5293L79.1251 28.2846L73.9046 25.8006L70.1439 30.2022L64.597 28.568L61.5825 33.4983L55.8473 32.7508L53.6272 38.0913L47.8347 38.2327L46.4766 43.8536L40.7843 44.9097L40.3253 50.6727L34.8765 52.5997L35.3381 58.3628L30.2566 61.1281L31.6105 66.7522L27.017 70.273L29.2347 75.6188L25.2501 79.8125L28.2682 84.748L24.9869 89.5082L28.7422 93.9014L26.2582 99.1219L30.6639 102.867L29.0297 108.414L33.96 111.429L33.2125 117.164L38.5571 119.369L38.7026 125.146L44.3235 126.504L45.3796 132.196L51.1426 132.655L53.0696 138.104L58.8328 137.642L61.598 142.724L67.2221 141.37L70.7429 145.963L76.0887 143.746L80.2824 147.73L85.2179 144.712L89.9781 147.994L94.3713 144.238L99.5918 146.722L103.353 142.321L108.899 143.955L111.914 139.025L117.645 139.787L119.865 134.447L125.642 134.301L127 128.681L132.693 127.624L133.152 121.861L138.6 119.934L138.143 114.156L143.224 111.391L141.871 105.767L141.882 105.786ZM73.3324 136.299C45.6894 128.892 29.298 100.479 36.7049 72.836C44.1119 45.1929 72.5097 28.7974 100.153 36.2043C127.796 43.6113 144.187 72.0245 136.784 99.6522C129.382 127.28 100.96 143.702 73.3324 136.299Z" fill="#6F1AB6"/>
<path d="M99.1416 39.978C73.6155 33.1383 47.2989 48.3322 40.4592 73.8583C33.6195 99.3844 48.8134 125.701 74.3395 132.541C99.8656 139.38 126.182 124.186 133.022 98.6604C139.862 73.1343 124.668 46.8177 99.1416 39.978ZM75.2027 129.319C51.4714 122.96 37.3331 98.4722 43.696 74.7256C50.0588 50.9789 74.5471 36.8406 98.2784 43.1994C122.01 49.5582 136.163 74.0506 129.8 97.7972C123.438 121.544 98.9493 135.682 75.2027 129.319Z" fill="#6F1AB6"/>
<path d="M141.255 91.0673L36.7269 63.0591L30.7381 85.4097L135.266 113.418L141.255 91.0673Z" fill="#6F1AB6"/>
<path d="M93.666 51.5161C93.6571 52.0399 93.6094 52.5861 93.5116 53.1354C92.765 57.2101 89.6394 60.0391 86.5322 59.486C84.1512 59.0453 82.4174 56.3118 82.1037 53.4327L79.1737 52.6476L81.9011 67.995L90.8904 70.4037L95.7982 52.0875L93.6813 51.5203L93.666 51.5161Z" fill="#6F1AB6"/>
<path d="M97.8999 52.6506C97.6456 53.1086 97.4138 53.6055 97.2239 54.1301C95.8331 58.0322 97.1255 62.0449 100.093 63.1196C102.375 63.9284 105.244 62.4281 106.955 60.0915L109.885 60.8766L99.8491 72.8041L90.8598 70.3954L95.7676 52.0792L97.8845 52.6465L97.8999 52.6506Z" fill="#6F1AB6"/>
<path d="M83.0077 50.3044C82.7323 51.3322 81.682 51.9386 80.6542 51.6632C79.6264 51.3878 79.02 50.3374 79.2954 49.3097C79.5708 48.2819 80.6211 47.6755 81.6489 47.9508C82.6767 48.2262 83.2831 49.2766 83.0077 50.3044Z" fill="#6F1AB6"/>
<path d="M107.951 56.9879C107.675 58.0157 108.282 59.066 109.31 59.3414C110.337 59.6168 111.388 59.0104 111.663 57.9826C111.939 56.9548 111.332 55.9045 110.304 55.6291C109.277 55.3537 108.226 55.9601 107.951 56.9879Z" fill="#6F1AB6"/>
<path d="M99.2586 49.0522C98.9051 50.3715 97.563 51.1463 96.2438 50.7928C94.9245 50.4393 94.1497 49.0973 94.5031 47.778C94.8566 46.4587 96.1987 45.6839 97.518 46.0374C98.8372 46.3909 99.6121 47.733 99.2586 49.0522Z" fill="#6F1AB6"/>
<path d="M63.7757 54.9504L65.5692 57.3382L68.398 56.3534L66.6887 58.8055L68.4822 61.1933L65.627 60.3132L63.9136 62.7807L63.8599 59.7904L61.0047 58.9102L63.8294 57.9407L63.7757 54.9504Z" fill="#6F1AB6"/>
<path d="M121.884 70.5206L119.122 71.6876L117.18 69.4244L117.434 72.4027L114.672 73.5697L117.584 74.2351L117.834 77.2287L119.391 74.67L122.304 75.3354L120.343 73.0834L121.884 70.5206Z" fill="#6F1AB6"/>
<path d="M51.2102 101.845L53.9533 100.69L55.9148 102.942L55.6605 99.9633L58.4036 98.8075L55.495 98.1268L55.2407 95.1485L53.6991 97.7113L50.7904 97.0306L52.7478 99.2979L51.2102 101.845Z" fill="#6F1AB6"/>
<path d="M109.319 117.416L107.506 115.039L104.697 116.013L106.406 113.56L104.593 111.184L107.452 112.049L109.162 109.596L109.231 112.591L112.09 113.456L109.261 114.441L109.319 117.416Z" fill="#6F1AB6"/>
<path d="M73.7201 123.562L77.0587 122.27L79.3275 125.032L79.118 121.457L82.4566 120.165L79.0009 119.255L78.7914 115.681L76.8492 118.695L73.3935 117.786L75.6582 120.563L73.7201 123.562Z" fill="#6F1AB6"/>
<path d="M49.3049 86.8662L53.1564 72.4924L59.3231 74.1448L58.7395 76.3231L54.7357 75.2503L53.6834 79.1774L56.6134 79.9625L56.0297 82.1408L53.0997 81.3557L52.0475 85.2828L56.0513 86.3556L55.4676 88.5339L49.3008 86.8815L49.3049 86.8662Z" fill="#FFF8F2"/>
<path d="M64.952 91.0589L62.6203 90.4341L62.1884 85.4188L59.2914 89.5421L56.9597 88.9173L61.7183 82.4484L60.8112 74.5436L63.2042 75.1848L63.627 80.0497L66.4103 76.0439L68.8034 76.6851L64.0654 83.0773L64.952 91.0589Z" fill="#FFF8F2"/>
<path d="M69.29 92.4185C68.3389 92.1637 67.6163 91.6083 67.118 90.7679C66.6198 89.9274 66.5155 89.028 66.7704 88.0769L68.8708 80.2381C69.1256 79.287 69.681 78.5644 70.5368 78.0703C71.3926 77.5762 72.292 77.4719 73.2277 77.7226C74.1635 77.9733 74.9014 78.5328 75.3802 79.3845C75.8589 80.2362 75.9786 81.1397 75.7278 82.0754L75.288 83.7168L73.0484 83.1167L73.5005 81.4293C73.5909 81.0918 73.5504 80.7521 73.3707 80.4409C73.1911 80.1297 72.9325 79.9289 72.5797 79.8343C72.2268 79.7398 71.9178 79.7885 71.6066 79.9682C71.2954 80.1479 71.0946 80.4065 71.0001 80.7593L68.8914 88.6288C68.801 88.9663 68.8415 89.306 69.0253 89.6019C69.205 89.9131 69.4636 90.1139 69.801 90.2043C70.1385 90.2947 70.4782 90.2542 70.7894 90.0746C71.1006 89.8949 71.3014 89.6363 71.3919 89.2988L71.9221 87.3199L74.1618 87.92L73.6233 89.9296C73.3685 90.8807 72.8131 91.6033 71.9614 92.0821C71.1097 92.5608 70.2216 92.6846 69.2705 92.4297L69.29 92.4185Z" fill="#FFF8F2"/>
<path d="M80.4609 95.2144L74.5549 93.6319L78.4064 79.2582L80.5693 79.8377L77.2975 92.0485L81.0405 93.0515L80.4609 95.2144Z" fill="#FFF8F2"/>
<path d="M85.3286 96.6832C84.3775 96.4283 83.6549 95.873 83.172 95.0366C82.6892 94.2002 82.5695 93.2968 82.8244 92.3457L85.8003 81.2394L87.9172 81.8066L84.9454 92.8976C84.855 93.2351 84.8996 93.5594 85.0793 93.8706C85.259 94.1818 85.5176 94.3826 85.8704 94.4772C86.2232 94.5717 86.5476 94.5271 86.8434 94.3433C87.1546 94.1636 87.3555 93.9051 87.4459 93.5676L90.4177 82.4766L92.6727 83.0808L89.6968 94.1871C89.4378 95.1536 88.8825 95.8762 88.0349 96.3396C87.1873 96.803 86.2838 96.9227 85.3481 96.6719L85.3286 96.6832Z" fill="#FFF8F2"/>
<path d="M98.7223 96.2767C98.4705 97.2779 97.9795 98.0671 97.2535 98.6289C96.7733 99.0099 96.1878 99.2312 95.4942 99.2426C95.128 99.2596 94.7014 99.1946 94.2566 99.0754C93.4129 98.8493 92.7648 98.4455 92.3082 97.8792C91.9384 97.4184 91.6976 96.8442 91.5818 96.172C91.466 95.4997 91.4935 94.7836 91.653 94.0043L93.765 94.4058C93.631 95.2742 93.6854 95.93 93.9355 96.408C94.1182 96.7694 94.3767 96.9702 94.7183 97.0453C95.1939 97.1727 95.6432 97.03 96.0426 96.6438C96.2382 96.466 96.4012 96.1644 96.5122 95.7502C96.6725 95.152 96.5567 94.4797 96.176 93.7529C95.8533 93.239 95.3735 92.4528 94.7323 91.4095C94.1962 90.526 93.8585 89.7614 93.715 89.1311C93.5573 88.4312 93.5848 87.7151 93.7821 86.9788C94.1315 85.6749 94.8435 84.797 95.8987 84.3563C96.5425 84.1013 97.275 84.0674 98.0881 84.2852C98.9011 84.5031 99.4695 84.8362 99.9272 85.337C100.287 85.7129 100.522 86.1869 100.67 86.7364C100.804 87.2818 100.82 87.8946 100.702 88.5206L98.5282 88.3492C98.623 87.7498 98.5776 87.2444 98.3919 86.8329C98.2541 86.5494 97.9956 86.3485 97.6274 86.2499C97.2286 86.143 96.8765 86.2295 96.5826 86.5289C96.3399 86.7598 96.1686 87.0921 96.0535 87.5216C95.8768 88.1813 95.9761 88.9149 96.3588 89.7573C96.5037 90.0756 96.7436 90.4687 97.0786 90.9366C97.4738 91.4865 97.7291 91.8837 97.8373 92.0936C98.2303 92.7743 98.5048 93.4069 98.6565 94.0065C98.7288 94.289 98.7745 94.5479 98.8131 94.7719C98.8769 95.3316 98.8609 95.8206 98.7653 96.2389L98.7223 96.2767Z" fill="#FFF8F2"/>
<path d="M101.738 100.915L99.5747 100.336L103.426 85.9622L105.589 86.5417L101.738 100.915Z" fill="#FFF8F2"/>
<path d="M106.11 102.087L107.399 87.0267L109.67 87.6351L108.479 99.3184L113.29 88.6051L115.56 89.2135L109.101 102.888L106.125 102.091L106.11 102.087Z" fill="#FFF8F2"/>
<path d="M113.519 104.072L117.37 89.6985L123.537 91.3509L122.953 93.5292L118.95 92.4564L117.897 96.3834L120.827 97.1685L120.244 99.3468L117.314 98.5618L116.261 102.489L120.265 103.562L119.682 105.74L113.515 104.088L113.519 104.072Z" fill="#FFF8F2"/>
</g>
<g clip-path="url(#clip1_80_2209)">
<circle cx="86.3573" cy="76.3573" r="53.94" fill="white"/>
<path d="M141.882 96.2673L146.475 92.7465L144.258 87.4006L148.242 83.207L145.224 78.2715L148.505 73.5112L144.75 69.118L147.234 63.8975L142.828 60.1521L144.463 54.6053L139.532 51.5907L140.28 45.8556L134.939 43.6354L134.794 37.8583L129.173 36.5002L128.117 30.808L122.354 30.3489L120.427 24.9001L114.664 25.3617L111.898 20.2802L106.274 21.6341L102.754 17.0407L97.4077 19.2583L93.2141 15.2738L88.2785 18.2919L83.5183 15.0105L79.1251 18.7658L73.9046 16.2818L70.1439 20.6834L64.597 19.0492L61.5825 23.9795L55.8473 23.232L53.6272 28.5725L47.8347 28.7139L46.4766 34.3348L40.7843 35.3909L40.3253 41.1539L34.8765 43.0809L35.3381 48.844L30.2566 51.6093L31.6105 57.2334L27.017 60.7542L29.2347 66.1L25.2501 70.2937L28.2682 75.2292L24.9869 79.9894L28.7422 84.3826L26.2582 89.6031L30.6639 93.3485L29.0297 98.8953L33.96 101.91L33.2125 107.645L38.5571 109.85L38.7026 115.627L44.3235 116.985L45.3796 122.677L51.1426 123.136L53.0696 128.585L58.8328 128.124L61.598 133.205L67.2221 131.851L70.7429 136.445L76.0887 134.227L80.2824 138.212L85.2179 135.193L89.9781 138.475L94.3713 134.719L99.5918 137.203L103.353 132.802L108.899 134.436L111.914 129.506L117.645 130.269L119.865 124.928L125.642 124.783L127 119.162L132.693 118.106L133.152 112.343L138.6 110.416L138.143 104.637L143.224 101.872L141.871 96.2478L141.882 96.2673ZM73.3324 126.78C45.6894 119.373 29.298 90.9602 36.7049 63.3172C44.1119 35.6741 72.5097 19.2786 100.153 26.6855C127.796 34.0925 144.187 62.5057 136.784 90.1334C129.382 117.761 100.96 134.183 73.3324 126.78Z" fill="#6F1AB6"/>
<path d="M99.1416 30.4592C73.6155 23.6195 47.2989 38.8134 40.4592 64.3395C33.6195 89.8656 48.8134 116.182 74.3395 123.022C99.8656 129.862 126.182 114.668 133.022 89.1416C139.862 63.6155 124.668 37.2989 99.1416 30.4592ZM75.2027 119.8C51.4714 113.442 37.3331 88.9534 43.696 65.2068C50.0588 41.4601 74.5471 27.3218 98.2784 33.6806C122.01 40.0394 136.163 64.5318 129.8 88.2784C123.438 112.025 98.9493 126.163 75.2027 119.8Z" fill="#6F1AB6"/>
<path d="M141.255 81.5485L36.7269 53.5403L30.7381 75.8909L135.266 103.899L141.255 81.5485Z" fill="#6F1AB6"/>
<path d="M93.666 41.9973C93.6571 42.5211 93.6094 43.0673 93.5116 43.6166C92.765 47.6913 89.6394 50.5203 86.5322 49.9672C84.1512 49.5265 82.4174 46.793 82.1037 43.9139L79.1737 43.1288L81.9011 58.4762L90.8904 60.8849L95.7982 42.5687L93.6813 42.0015L93.666 41.9973Z" fill="#6F1AB6"/>
<path d="M97.8999 43.1318C97.6456 43.5898 97.4138 44.0867 97.2239 44.6113C95.8331 48.5134 97.1255 52.5261 100.093 53.6008C102.375 54.4096 105.244 52.9093 106.955 50.5727L109.885 51.3578L99.8491 63.2853L90.8598 60.8766L95.7676 42.5604L97.8845 43.1277L97.8999 43.1318Z" fill="#6F1AB6"/>
<path d="M83.0077 40.7856C82.7323 41.8134 81.682 42.4198 80.6542 42.1444C79.6264 41.869 79.02 40.8187 79.2954 39.7909C79.5708 38.7631 80.6211 38.1567 81.6489 38.4321C82.6767 38.7074 83.2831 39.7578 83.0077 40.7856Z" fill="#6F1AB6"/>
<path d="M107.951 47.4691C107.675 48.4969 108.282 49.5472 109.31 49.8226C110.337 50.098 111.388 49.4916 111.663 48.4638C111.939 47.436 111.332 46.3857 110.304 46.1103C109.277 45.8349 108.226 46.4413 107.951 47.4691Z" fill="#6F1AB6"/>
<path d="M99.2586 39.5334C98.9051 40.8527 97.563 41.6275 96.2438 41.274C94.9245 40.9205 94.1497 39.5785 94.5031 38.2592C94.8566 36.9399 96.1987 36.1651 97.518 36.5186C98.8372 36.8721 99.6121 38.2142 99.2586 39.5334Z" fill="#6F1AB6"/>
<path d="M63.7757 45.4316L65.5692 47.8194L68.398 46.8346L66.6887 49.2867L68.4822 51.6745L65.627 50.7944L63.9136 53.2619L63.8599 50.2716L61.0047 49.3914L63.8294 48.4219L63.7757 45.4316Z" fill="#6F1AB6"/>
<path d="M121.884 61.0018L119.122 62.1688L117.18 59.9056L117.434 62.8839L114.672 64.0509L117.584 64.7163L117.834 67.7099L119.391 65.1512L122.304 65.8166L120.343 63.5646L121.884 61.0018Z" fill="#6F1AB6"/>
<path d="M51.2102 92.3266L53.9533 91.1708L55.9148 93.4227L55.6605 90.4445L58.4036 89.2887L55.495 88.608L55.2407 85.6297L53.6991 88.1925L50.7904 87.5118L52.7478 89.7791L51.2102 92.3266Z" fill="#6F1AB6"/>
<path d="M109.319 107.897L107.506 105.52L104.697 106.494L106.406 104.042L104.593 101.665L107.452 102.53L109.162 100.078L109.231 103.072L112.09 103.937L109.261 104.922L109.319 107.897Z" fill="#6F1AB6"/>
<path d="M73.7201 114.043L77.0587 112.751L79.3275 115.513L79.118 111.938L82.4566 110.646L79.0009 109.737L78.7914 106.162L76.8492 109.176L73.3935 108.267L75.6582 111.044L73.7201 114.043Z" fill="#6F1AB6"/>
<path d="M49.3049 77.3474L53.1564 62.9736L59.3231 64.626L58.7395 66.8043L54.7357 65.7315L53.6834 69.6586L56.6134 70.4437L56.0297 72.622L53.0997 71.8369L52.0475 75.764L56.0513 76.8368L55.4676 79.0151L49.3008 77.3627L49.3049 77.3474Z" fill="#FFF8F2"/>
<path d="M64.952 81.5401L62.6203 80.9153L62.1884 75.9L59.2914 80.0233L56.9597 79.3985L61.7183 72.9296L60.8112 65.0248L63.2042 65.666L63.627 70.5309L66.4103 66.5251L68.8034 67.1663L64.0654 73.5585L64.952 81.5401Z" fill="#FFF8F2"/>
<path d="M69.29 82.8997C68.3389 82.6449 67.6163 82.0895 67.118 81.2491C66.6198 80.4086 66.5155 79.5092 66.7704 78.5581L68.8708 70.7193C69.1256 69.7682 69.681 69.0456 70.5368 68.5515C71.3926 68.0574 72.292 67.9531 73.2277 68.2038C74.1635 68.4545 74.9014 69.014 75.3802 69.8657C75.8589 70.7174 75.9786 71.6209 75.7278 72.5566L75.288 74.198L73.0484 73.5979L73.5005 71.9105C73.5909 71.573 73.5504 71.2333 73.3707 70.9221C73.1911 70.6109 72.9325 70.4101 72.5797 70.3155C72.2268 70.221 71.9178 70.2697 71.6066 70.4494C71.2954 70.6291 71.0946 70.8877 71.0001 71.2405L68.8914 79.11C68.801 79.4475 68.8415 79.7872 69.0253 80.0831C69.205 80.3943 69.4636 80.5951 69.801 80.6855C70.1385 80.7759 70.4782 80.7354 70.7894 80.5558C71.1006 80.3761 71.3014 80.1175 71.3919 79.78L71.9221 77.8011L74.1618 78.4012L73.6233 80.4108C73.3685 81.3619 72.8131 82.0845 71.9614 82.5633C71.1097 83.042 70.2216 83.1658 69.2705 82.9109L69.29 82.8997Z" fill="#FFF8F2"/>
<path d="M80.4609 85.6956L74.5549 84.1131L78.4064 69.7394L80.5693 70.3189L77.2975 82.5297L81.0405 83.5327L80.4609 85.6956Z" fill="#FFF8F2"/>
<path d="M85.3286 87.1644C84.3775 86.9095 83.6549 86.3542 83.172 85.5178C82.6892 84.6814 82.5695 83.778 82.8244 82.8269L85.8003 71.7206L87.9172 72.2878L84.9454 83.3788C84.855 83.7163 84.8996 84.0406 85.0793 84.3518C85.259 84.663 85.5176 84.8638 85.8704 84.9584C86.2232 85.0529 86.5476 85.0083 86.8434 84.8245C87.1546 84.6448 87.3555 84.3863 87.4459 84.0488L90.4177 72.9578L92.6727 73.562L89.6968 84.6683C89.4378 85.6348 88.8825 86.3574 88.0349 86.8208C87.1873 87.2842 86.2838 87.4039 85.3481 87.1531L85.3286 87.1644Z" fill="#FFF8F2"/>
<path d="M98.7223 86.7579C98.4705 87.7591 97.9795 88.5483 97.2535 89.1101C96.7733 89.4911 96.1878 89.7124 95.4942 89.7238C95.128 89.7408 94.7014 89.6758 94.2566 89.5566C93.4129 89.3305 92.7648 88.9267 92.3082 88.3604C91.9384 87.8996 91.6976 87.3254 91.5818 86.6532C91.466 85.9809 91.4935 85.2648 91.653 84.4855L93.765 84.887C93.631 85.7554 93.6854 86.4112 93.9355 86.8892C94.1182 87.2506 94.3767 87.4514 94.7183 87.5265C95.1939 87.6539 95.6432 87.5112 96.0426 87.125C96.2382 86.9472 96.4012 86.6456 96.5122 86.2314C96.6725 85.6332 96.5567 84.9609 96.176 84.2341C95.8533 83.7202 95.3735 82.934 94.7323 81.8907C94.1962 81.0072 93.8585 80.2427 93.715 79.6123C93.5573 78.9124 93.5848 78.1963 93.7821 77.46C94.1315 76.1561 94.8435 75.2782 95.8987 74.8375C96.5425 74.5825 97.275 74.5486 98.0881 74.7664C98.9011 74.9843 99.4695 75.3174 99.9272 75.8182C100.287 76.1941 100.522 76.6681 100.67 77.2176C100.804 77.763 100.82 78.3758 100.702 79.0018L98.5282 78.8304C98.623 78.231 98.5776 77.7256 98.3919 77.3141C98.2541 77.0306 97.9956 76.8297 97.6274 76.7311C97.2286 76.6242 96.8765 76.7107 96.5826 77.0101C96.3399 77.241 96.1686 77.5733 96.0535 78.0028C95.8768 78.6625 95.9761 79.3961 96.3588 80.2385C96.5037 80.5568 96.7436 80.9499 97.0786 81.4178C97.4738 81.9677 97.7291 82.3649 97.8373 82.5748C98.2303 83.2555 98.5048 83.8881 98.6565 84.4877C98.7288 84.7702 98.7745 85.0291 98.8131 85.2531C98.8769 85.8128 98.8609 86.3018 98.7653 86.7201L98.7223 86.7579Z" fill="#FFF8F2"/>
<path d="M101.738 91.3967L99.5747 90.8171L103.426 76.4434L105.589 77.0229L101.738 91.3967Z" fill="#FFF8F2"/>
<path d="M106.11 92.5681L107.399 77.5079L109.67 78.1163L108.479 89.7996L113.29 79.0863L115.56 79.6947L109.101 93.3697L106.125 92.5722L106.11 92.5681Z" fill="#FFF8F2"/>
<path d="M113.519 94.5535L117.37 80.1797L123.537 81.8321L122.953 84.0104L118.95 82.9376L117.897 86.8647L120.827 87.6497L120.244 89.828L117.314 89.043L116.261 92.97L120.265 94.0429L119.682 96.2212L113.515 94.5688L113.519 94.5535Z" fill="#FFF8F2"/>
</g>
<defs>
<filter id="filter0_f_80_2209" x="-13" y="-13.4812" width="199.481" height="199.481" filterUnits="userSpaceOnUse" color-interpolation-filters="sRGB">
<feFlood flood-opacity="0" result="BackgroundImageFix"/>
<feBlend mode="normal" in="SourceGraphic" in2="BackgroundImageFix" result="shape"/>
<feGaussianBlur stdDeviation="12" result="effect1_foregroundBlur_80_2209"/>
</filter>
<clipPath id="clip0_80_2209">
<rect width="123.684" height="123.684" fill="white" transform="translate(43.0117 10.5188) rotate(15)"/>
</clipPath>
<clipPath id="clip1_80_2209">
<rect width="123.684" height="123.684" fill="white" transform="translate(43.0117 1) rotate(15)"/>
</clipPath>
</defs>
</svg>
