<svg width="115" height="115" viewBox="0 0 115 115" fill="none" xmlns="http://www.w3.org/2000/svg">
<circle cx="57.5" cy="57.5" r="54" fill="#6F1AB6" stroke="white" stroke-width="7"/>
<path d="M44.8474 41.2855L44.3569 41.154C44.603 40.5123 44.7715 40.0216 44.8625 39.682C44.9923 39.1978 44.9622 38.7819 44.7722 38.4345C44.5902 38.0824 44.2759 37.8465 43.8294 37.7269C43.1377 37.5416 42.4666 37.6313 41.8161 37.9962C41.1674 38.3549 40.7596 38.8455 40.5927 39.468C40.5034 39.8013 40.4917 40.1217 40.5576 40.4292C40.6298 40.7384 40.8431 41.1999 41.1976 41.8139C41.8518 42.9193 42.2515 43.7543 42.3967 44.319C42.542 44.8836 42.5523 45.3986 42.4276 45.864C42.2439 46.5495 41.8563 47.1533 41.2648 47.6756C40.6796 48.1995 39.9234 48.5563 38.9964 48.746C38.074 48.9437 37.16 48.9212 36.2544 48.6786C35.3614 48.4393 34.6691 48.0044 34.1776 47.3739C33.6923 46.7451 33.5187 46.1729 33.6569 45.6572C33.731 45.3805 33.8711 45.1721 34.0772 45.0318C34.2896 44.8933 34.4995 44.8518 34.707 44.9074C34.9208 44.9647 35.0742 45.0968 35.167 45.3036C35.2281 45.4278 35.2555 45.6778 35.2492 46.0536C35.2352 46.5081 35.2753 46.8491 35.3694 47.0766C35.4618 47.3103 35.6177 47.5206 35.8372 47.7074C36.0614 47.9023 36.3244 48.0402 36.6262 48.121C37.5255 48.362 38.3924 48.2708 39.2271 47.8474C40.0634 47.4177 40.5801 46.8349 40.7773 46.0992C40.8447 45.8476 40.8672 45.5874 40.8449 45.3186C40.8306 45.0452 40.7523 44.7209 40.6102 44.3458C40.5102 44.0899 40.2623 43.619 39.8664 42.9333C39.4734 42.2618 39.2339 41.8101 39.1478 41.5781C39.0287 41.2428 38.9598 40.9211 38.9413 40.6128C38.9245 40.2983 38.954 39.9995 39.0299 39.7165C39.1832 39.1443 39.5292 38.6203 40.0678 38.1445C40.6064 37.6687 41.2262 37.3428 41.9272 37.1667C42.6362 36.9859 43.3805 37 44.1603 37.209C44.5502 37.3134 45.0153 37.5021 45.5555 37.7749C45.8657 37.9254 46.136 38.0484 46.3666 38.1439C46.1187 38.5156 45.9082 38.8737 45.735 39.2182C45.5635 39.5564 45.2676 40.2455 44.8474 41.2855ZM45.6449 43.7032L45.3781 43.2273C46.1341 42.6952 46.8388 42.3414 47.4924 42.1661C48.146 41.9907 48.6803 41.9586 49.0954 42.0698C49.2526 42.112 49.3643 42.1857 49.4304 42.291C49.5045 42.3918 49.5214 42.5176 49.4809 42.6685C49.432 42.8509 49.3595 43.0337 49.2632 43.2168C49.175 43.3954 48.9279 43.8144 48.522 44.4741C49.7419 43.7697 50.5583 43.3515 50.9711 43.2195C51.665 42.9943 52.2572 42.9474 52.7478 43.0788C53.0685 43.1648 53.2984 43.3881 53.4377 43.749C53.5769 44.1098 53.5648 44.5952 53.4013 45.2052C52.9935 46.727 52.1312 48.0462 50.8143 49.1627C49.4974 50.2791 48.2635 50.6832 47.1127 50.3748C46.6599 50.2535 46.24 50.0096 45.853 49.643L44.2171 52.541C44.1162 52.7162 44.0498 52.8635 44.0178 52.983C43.9554 53.2157 43.9988 53.4059 44.1479 53.5537C44.3762 53.7834 44.9108 54.0648 45.7516 54.3979L45.5026 54.8367C44.5121 54.4837 43.7275 54.2296 43.149 54.0746C42.5516 53.9145 41.7671 53.7482 40.7956 53.5755L41.0446 53.1367C41.5361 53.2144 41.9173 53.1751 42.1884 53.0185C42.4658 52.8637 42.7438 52.5304 43.0225 52.0187L46.6482 45.3166C47.3262 44.0694 47.6854 43.3703 47.7258 43.2194C47.7696 43.0559 47.7129 42.9531 47.5557 42.9109C47.279 42.8368 46.6421 43.1009 45.6449 43.7032ZM46.3574 48.666C46.7211 49.2959 47.1639 49.6808 47.6858 49.8207C48.4405 50.0229 49.2583 49.6118 50.1394 48.5875C51.0267 47.5649 51.6204 46.4939 51.9203 45.3745C52.0164 45.0161 52.0071 44.7238 51.8924 44.4976C51.7858 44.2668 51.5972 44.1152 51.3268 44.0427C51.025 43.9619 50.6458 44.0186 50.1893 44.2131C49.4814 44.5155 48.9128 44.8517 48.4833 45.222C48.1756 45.49 47.8164 46.0004 47.4058 46.7531L46.3574 48.666ZM58.4767 50.5991L58.6767 51.0975C56.7434 52.1499 55.2265 52.5287 54.126 52.2338C53.6795 52.1142 53.3772 51.8714 53.2192 51.5055C53.0674 51.1413 53.0808 50.626 53.2594 49.9594C53.62 48.6136 54.3876 47.3837 55.5624 46.2695C56.8866 45 58.187 44.5363 59.4636 44.8783C59.9101 44.998 60.2193 45.2021 60.3913 45.4909C60.5713 45.775 60.6091 46.112 60.5046 46.5019C60.3951 46.9107 60.1458 47.2752 59.7566 47.5956C59.3675 47.9159 58.7509 48.1922 57.9068 48.4244C57.4865 48.5342 56.6064 48.6994 55.2667 48.92C55.1191 49.2445 55.004 49.5607 54.9215 49.8689C54.8018 50.3154 54.7876 50.6452 54.8788 50.8583C54.9762 51.0732 55.1601 51.2168 55.4306 51.2893C55.6884 51.3584 55.9908 51.3619 56.3376 51.2998C56.8049 51.2161 57.5179 50.9825 58.4767 50.5991ZM55.5416 48.3467C56.6754 48.1652 57.5669 47.8817 58.2162 47.4962C58.6598 47.2242 58.9296 46.9089 59.0256 46.5505C59.0981 46.2801 59.0831 46.0469 58.9806 45.8509C58.886 45.6503 58.7256 45.5197 58.4992 45.4591C58.2665 45.3967 58.0165 45.4241 57.7492 45.5412C57.3913 45.6947 57.0486 45.9803 56.721 46.398C56.2463 47.0122 55.8532 47.6618 55.5416 48.3467ZM65.5782 52.8457L65.6297 53.4458C63.8179 54.2208 62.3964 54.4701 61.365 54.1937C60.8179 54.0471 60.4708 53.7452 60.3238 53.2879C60.183 52.8323 60.1926 52.3058 60.3527 51.7084C60.6189 50.7148 61.1569 49.7636 61.9665 48.855C62.7761 47.9463 63.6333 47.3133 64.5379 46.9558C65.2453 46.6803 65.97 46.6419 66.712 46.8408C67.1774 46.9655 67.506 47.1479 67.6977 47.388C67.8895 47.6281 67.9517 47.8739 67.8843 48.1254C67.8321 48.3204 67.7262 48.4639 67.5668 48.556C67.409 48.6418 67.2169 48.6543 66.9905 48.5937C66.7704 48.5347 66.5144 48.3582 66.2224 48.0643C65.9213 47.7545 65.6512 47.5675 65.4122 47.5035C65.1041 47.4209 64.758 47.4799 64.3741 47.6803C63.9981 47.8761 63.5639 48.3394 63.0715 49.0702C62.5791 49.801 62.2243 50.572 62.0069 51.3832C61.8468 51.9806 61.8393 52.474 61.9844 52.8634C62.0867 53.1604 62.292 53.3502 62.6002 53.4328C63.3359 53.6299 64.3286 53.4342 65.5782 52.8457ZM74.0336 44.4552C74.2286 44.5075 74.3712 44.6165 74.4616 44.7822C74.5537 44.9417 74.5728 45.122 74.5188 45.3233C74.4447 45.6 74.2815 45.8191 74.0293 45.9807C73.785 46.1377 73.5434 46.1841 73.3044 46.1201C73.1158 46.0695 72.9762 45.9614 72.8859 45.7956C72.7955 45.6299 72.7789 45.4401 72.8362 45.2263C72.912 44.9433 73.0673 44.7288 73.3019 44.5827C73.5382 44.4303 73.7821 44.3878 74.0336 44.4552ZM68.6438 49.7039L68.3147 49.272C69.1289 48.7488 69.8326 48.4116 70.4258 48.2605C71.027 48.1048 71.5099 48.0758 71.8746 48.1735C72.0759 48.2274 72.2181 48.3127 72.3015 48.4294C72.3848 48.5461 72.4062 48.6799 72.3658 48.8309C72.3169 49.0132 71.9053 49.732 71.1309 50.987C69.8661 53.0409 69.1722 54.2973 69.0492 54.7564C69.0256 54.8444 69.0274 54.9258 69.0546 55.0005C69.0834 55.0689 69.123 55.1098 69.1733 55.1233C69.3745 55.1772 69.9947 54.9255 71.0337 54.3681L71.3056 54.8252C70.2266 55.4055 69.4588 55.7558 69.0019 55.8761C68.5451 55.9963 68.1909 56.0227 67.9394 55.9553C67.7193 55.8963 67.5617 55.78 67.4667 55.6063C67.378 55.4342 67.3665 55.2256 67.4322 54.9803C67.6429 54.1942 68.6293 52.3994 70.3915 49.5959C70.4743 49.4631 70.5308 49.3401 70.5612 49.2269C70.5949 49.1011 70.5551 49.0231 70.4419 48.9927C70.3161 48.959 70.158 48.9706 69.9676 49.0274C69.7834 49.0859 69.3421 49.3114 68.6438 49.7039ZM80.4319 50.3451L81.0899 50.3799L79.7429 52.5768C79.2055 53.4506 78.645 54.4732 78.0616 55.6446C77.7429 56.2804 77.5575 56.6958 77.5052 56.8908C77.453 57.0857 77.5055 57.2042 77.6627 57.2464C77.7633 57.2733 77.9414 57.2503 78.1969 57.1772C78.6491 57.049 79.1008 56.86 79.5519 56.6101L79.7552 57.0589C78.863 57.5208 78.2978 57.794 78.0595 57.8784C77.5829 58.0473 77.1445 58.1489 76.7444 58.1832C76.4819 58.2072 76.2374 58.1889 76.011 58.1282C75.8475 58.0844 75.735 58.0138 75.6734 57.9164C75.6119 57.8191 75.6005 57.6981 75.6393 57.5534C75.6646 57.4591 75.7242 57.3369 75.8184 57.1869L76.5394 56.0051C75.8251 56.508 75.0313 56.8918 74.1583 57.1566C73.6217 57.3229 73.1616 57.3546 72.778 57.2518C72.4133 57.1541 72.168 56.9502 72.0421 56.6401C71.8707 56.2235 71.86 55.7353 72.0099 55.1757C72.1885 54.5091 72.5635 53.8142 73.1347 53.091C73.7122 52.3696 74.3889 51.7556 75.165 51.2491C75.941 50.7426 76.7013 50.4205 77.4458 50.283C78.0192 50.1806 78.7053 50.2363 79.5039 50.4503C79.7051 50.5042 79.9062 50.5716 80.1069 50.6523L80.4319 50.3451ZM78.8755 51.4749C78.5545 51.3148 78.2776 51.2035 78.0449 51.1412C77.479 50.9895 76.9432 51.0145 76.4376 51.216C75.9337 51.4112 75.3907 51.8656 74.8086 52.5791C74.2344 53.288 73.8395 54.0449 73.6239 54.8498C73.5093 55.2775 73.499 55.605 73.5931 55.8324C73.6872 56.0598 73.8506 56.2047 74.0833 56.267C74.5172 56.3833 75.0449 56.2753 75.6664 55.9431C76.2895 55.6046 76.8354 55.0263 77.304 54.2082L78.8755 51.4749ZM84.8619 57.7701L85.0916 58.1956C84.4528 58.6176 83.7355 58.9679 82.9396 59.2467C82.1517 59.5209 81.5408 59.5998 81.1069 59.4835C80.9119 59.4313 80.7718 59.3129 80.6865 59.1283C80.5995 58.9499 80.5905 58.7318 80.6596 58.474C80.7944 57.9709 81.269 56.9792 82.0836 55.499L84.2119 51.6309C84.984 50.2337 85.564 49.3141 85.952 48.8721C86.5492 48.2031 87.2604 47.7499 88.0855 47.5127C88.917 47.2772 89.7289 47.2656 90.5213 47.4779C90.7917 47.5503 90.9847 47.6728 91.1002 47.8453C91.2237 48.0132 91.2611 48.1884 91.2122 48.3707C91.1583 48.572 91.0382 48.7184 90.8519 48.81C90.6672 48.8953 90.4303 48.8992 90.141 48.8217C89.9523 48.7712 89.6935 48.6681 89.3645 48.5126C89.0761 48.3814 88.803 48.2812 88.5452 48.2122C88.2873 48.1431 88.0781 48.1443 87.9174 48.2158C87.6946 48.3179 87.4428 48.5908 87.1621 49.0346C86.8878 49.48 86.3927 50.3719 85.6769 51.7101L83.684 55.4122C82.6879 57.2684 82.178 58.2405 82.1544 58.3286C82.1005 58.5298 82.1458 58.6498 82.2905 58.6886C82.4288 58.7256 82.652 58.6978 82.9599 58.6051C83.5695 58.4179 84.2035 58.1396 84.8619 57.7701ZM29.8669 56.5009L30.0938 56.1067C31.0293 56.263 31.8427 56.3462 32.5343 56.3562C32.2591 56.7543 31.9351 57.2842 31.5624 57.946L30.1541 60.4096L31.0067 60.6987C31.4042 60.8254 31.8682 60.8419 32.3988 60.7482C32.9357 60.6561 33.4638 60.3831 33.9831 59.9292C34.5087 59.4769 34.8575 58.93 35.0293 58.2886C35.1995 57.6534 35.1048 57.0888 34.7451 56.5948C34.3918 56.1024 33.7466 55.7307 32.8096 55.4797C31.7405 55.1932 30.6219 55.1799 29.4536 55.4398C28.287 55.6934 27.3127 56.1602 26.5306 56.8404C25.7564 57.5159 25.2615 58.2561 25.0459 59.061C24.9397 59.4572 24.9193 59.8225 24.9848 60.1568C25.0519 60.4848 25.2331 60.84 25.5283 61.2224C25.7757 61.5314 25.8708 61.7928 25.8136 62.0066C25.7765 62.1449 25.695 62.2478 25.5691 62.3152C25.4432 62.3825 25.3111 62.3977 25.1727 62.3606C24.8017 62.2612 24.5115 61.9105 24.3021 61.3084C24.0927 60.7064 24.0925 60.0154 24.3015 59.2357C24.684 57.8082 25.5799 56.653 26.9892 55.7702C28.8375 54.6074 30.9691 54.3496 33.3839 54.9966C34.302 55.2426 35.0215 55.5635 35.5423 55.9591C36.0694 56.3565 36.422 56.8015 36.6 57.294C36.7844 57.7883 36.8117 58.2775 36.6819 58.7617C36.5168 59.378 36.1467 59.9292 35.5715 60.4154C35.0044 60.897 34.2695 61.2124 33.3668 61.3614C32.4704 61.5122 31.5317 61.4561 30.5507 61.1932C30.3998 61.1528 30.1665 61.0802 29.8508 60.9754L28.3196 63.7093C28.0607 64.1724 27.7878 64.625 27.5008 65.0671C27.9593 65.318 28.3709 65.4923 28.7356 65.5901C29.1947 65.7131 29.712 65.7573 30.2874 65.7228L30.0326 66.2207C29.5067 66.2213 29.074 66.1761 28.7344 66.0851C28.4074 65.9975 27.9388 65.8349 27.3284 65.5972C26.8422 65.3995 26.4419 65.2585 26.1274 65.1743C25.5174 65.0108 24.8724 64.9155 24.1922 64.8883L24.4393 64.4187C25.122 64.487 25.6097 64.4526 25.9026 64.3153C26.318 64.1234 26.7472 63.6284 27.1902 62.8304L30.1286 57.5618C30.2622 57.3145 30.3434 57.1374 30.372 57.0305C30.399 56.9299 30.3817 56.8309 30.3202 56.7335C30.2603 56.6299 30.1738 56.5629 30.0606 56.5326C30.0166 56.5208 29.952 56.5102 29.8669 56.5009ZM35.7392 67.7497L34.3337 67.3731L35.6739 65.0126C36.3282 63.8534 36.9248 62.7461 37.4637 61.6908C37.5945 61.4293 37.6691 61.2639 37.6876 61.1948C37.7281 61.0438 37.6791 60.9498 37.5408 60.9128C37.4465 60.8875 37.2841 60.9148 37.0538 60.9946C36.8251 61.0681 36.3879 61.2913 35.742 61.6642L35.5381 61.2557C36.3153 60.7698 37.0456 60.4465 37.729 60.2858C38.4203 60.1206 38.9263 60.0809 39.2471 60.1668C39.3603 60.1972 39.4407 60.2491 39.4884 60.3225C39.5441 60.3914 39.561 60.4667 39.5391 60.5484C39.5172 60.6302 39.4182 60.8362 39.2421 61.1664L38.384 62.7462C39.2871 61.9165 40.2332 61.2534 41.2222 60.7568C41.6968 60.52 42.063 60.4361 42.3209 60.5052C42.5095 60.5557 42.6499 60.6607 42.742 60.8202C42.8357 60.9734 42.8607 61.1317 42.8169 61.2952C42.7714 61.465 42.6697 61.5928 42.512 61.6786C42.3605 61.7661 42.0175 61.8258 41.4832 61.8579C40.9757 61.8904 40.5447 61.9772 40.1902 62.1181C39.8419 62.2607 39.4311 62.5112 38.9576 62.8696C38.4904 63.2297 38.1421 63.561 37.9128 63.8635C37.6851 64.1597 37.2655 64.8831 36.654 66.0335L35.7392 67.7497ZM46.9766 62.2582C47.5929 62.4233 48.0397 62.8059 48.317 63.4059C48.5943 64.006 48.6159 64.743 48.3817 65.6172C48.0076 67.0132 47.1809 68.1364 45.9016 68.9866C44.6241 69.8305 43.4382 70.1059 42.3439 69.8127C41.6711 69.6324 41.1861 69.2665 40.889 68.7151C40.5982 68.1654 40.5547 67.5101 40.7586 66.7491C41.1125 65.4285 41.8167 64.3097 42.8712 63.3925C44.1932 62.2572 45.5616 61.8791 46.9766 62.2582ZM45.9852 62.7508C45.4507 62.6076 44.8291 62.8522 44.1204 63.4846C43.4198 64.1124 42.8891 65.0992 42.5285 66.4449C42.3095 67.2624 42.2908 67.9483 42.4726 68.5025C42.6063 68.909 42.8618 69.1629 43.2391 69.264C43.7674 69.4055 44.3361 69.2074 44.9452 68.6696C45.7261 67.969 46.285 66.9898 46.622 65.7321C46.8748 64.7888 46.9262 64.0814 46.7762 63.6098C46.6325 63.1399 46.3688 62.8536 45.9852 62.7508ZM56.0801 71.1073L56.2481 71.5365C55.2151 72.0213 54.463 72.3253 53.9919 72.4484C53.34 72.6175 52.8505 72.6582 52.5235 72.5706C52.3726 72.5302 52.2617 72.4533 52.191 72.34C52.1186 72.2329 52.0967 72.126 52.1253 72.0191C52.154 71.9122 52.2357 71.7454 52.3706 71.5186L53.0091 70.4563C52.0371 71.0653 51.2608 71.4471 50.6802 71.6015C50.0996 71.756 49.6081 71.7793 49.2056 71.6715C48.8724 71.5822 48.6313 71.3626 48.4824 71.0126C48.3352 70.6564 48.3374 70.1953 48.4891 69.6293C48.7283 68.7364 49.308 67.793 50.228 66.7994C51.156 65.8011 52.0684 65.1256 52.965 64.7727C53.8696 64.4152 54.6332 64.3199 55.2557 64.4867C55.3941 64.5238 55.5957 64.6014 55.8606 64.7195C56.4848 63.5725 57.007 62.7553 57.4274 62.2681C57.8494 61.7746 58.3291 61.3807 58.8662 61.0865C59.4034 60.7924 59.975 60.6085 60.5811 60.535C61.1951 60.4569 61.7411 60.4819 62.219 60.61C62.4706 60.6774 62.6541 60.7973 62.7697 60.9698C62.8852 61.1423 62.916 61.3292 62.8621 61.5304C62.8099 61.7254 62.6977 61.8672 62.5257 61.9559C62.3553 62.0383 62.1506 62.0475 61.9117 61.9835C61.7545 61.9413 61.4705 61.8315 61.0597 61.6541C60.6489 61.4766 60.3649 61.3668 60.2077 61.3247C59.9876 61.2657 59.7741 61.2826 59.5673 61.3755C59.3684 61.4637 59.1336 61.7109 58.8631 62.1169C58.6866 62.373 58.2153 63.2139 57.4491 64.6397L54.583 69.9782C54.2455 70.609 54.0472 71.0344 53.9883 71.2545C53.9242 71.4934 53.9834 71.6374 54.1658 71.6862C54.279 71.7166 54.422 71.7111 54.5948 71.6698C54.8406 71.6076 55.3357 71.4201 56.0801 71.1073ZM55.3845 65.7041C54.9117 65.4561 54.5716 65.3043 54.3641 65.2487C53.9427 65.1358 53.4862 65.1921 52.9944 65.4175C52.5043 65.6367 51.9434 66.1705 51.3116 67.019C50.6862 67.8691 50.2791 68.6464 50.0904 69.3507C50.0044 69.6714 50.0186 69.9583 50.1327 70.2113C50.2549 70.4597 50.426 70.6134 50.6461 70.6724C50.9103 70.7431 51.2433 70.7077 51.6452 70.566C52.2221 70.3499 52.7186 70.0313 53.1347 69.6104C53.3887 69.3414 53.8247 68.6326 54.4425 67.4838L55.3845 65.7041ZM65.6224 67.5273L66.9619 67.8862L65.1931 70.9407C64.1589 72.7126 63.6064 73.7306 63.5356 73.9947C63.5036 74.1142 63.5075 74.2129 63.5472 74.291C63.587 74.369 63.6414 74.4173 63.7106 74.4359C63.8175 74.4645 63.9559 74.451 64.1258 74.3955C64.3721 74.3064 64.8629 74.047 65.5981 73.6172L65.8159 74.0496C64.1997 75.0252 63.0929 75.433 62.4955 75.2729C62.2943 75.219 62.1424 75.0941 62.0399 74.8981C61.942 74.7101 61.9309 74.4746 62.0068 74.1916C62.0944 73.8646 62.2807 73.4461 62.5656 72.9361C61.8341 73.4275 60.9915 73.805 60.0379 74.0685C59.4049 74.2426 58.8872 74.2757 58.4847 74.1679C58.2646 74.1089 58.111 73.9903 58.024 73.8119C57.937 73.6336 57.9356 73.3872 58.0199 73.0728C58.0856 72.8275 58.1846 72.571 58.3171 72.3032C58.505 71.9289 58.9257 71.189 59.5791 70.0835C60.4065 68.6808 60.8607 67.8286 60.9416 67.5267C60.9887 67.3506 60.9494 67.2457 60.8237 67.212C60.7105 67.1817 60.5404 67.2002 60.3134 67.2674C60.0882 67.3284 59.6799 67.5189 59.0886 67.839L58.762 67.3977C59.8069 66.8688 60.5806 66.5471 61.0832 66.4323C61.5937 66.313 61.9841 66.2896 62.2545 66.362C62.4055 66.4025 62.5129 66.4919 62.5769 66.6304C62.6426 66.7626 62.6443 66.945 62.5819 67.1777C62.4657 67.6116 61.9537 68.6168 61.0459 70.1934C60.234 71.6137 59.7994 72.4308 59.7421 72.6446C59.7067 72.7766 59.7173 72.9008 59.7737 73.017C59.8365 73.1349 59.9182 73.2074 60.0188 73.2343C60.371 73.3287 60.9484 73.1734 61.7512 72.7684C62.5556 72.3571 63.1579 71.8074 63.5579 71.1193L65.6224 67.5273ZM72.1876 75.3222L72.2391 75.9224C70.4273 76.6973 69.0058 76.9466 67.9745 76.6702C67.4273 76.5236 67.0803 76.2217 66.9332 75.7644C66.7924 75.3088 66.802 74.7823 66.9621 74.1849C67.2284 73.1913 67.7663 72.2402 68.5759 71.3315C69.3856 70.4229 70.2427 69.7898 71.1473 69.4323C71.8547 69.1568 72.5794 69.1184 73.3215 69.3173C73.7868 69.442 74.1154 69.6244 74.3072 69.8645C74.4989 70.1046 74.5611 70.3504 74.4937 70.602C74.4415 70.7969 74.3356 70.9404 74.1762 71.0325C74.0184 71.1183 73.8263 71.1308 73.5999 71.0702C73.3798 71.0112 73.1238 70.8347 72.8318 70.5408C72.5307 70.231 72.2606 70.044 72.0217 69.98C71.7135 69.8974 71.3675 69.9564 70.9835 70.1568C70.6075 70.3526 70.1733 70.8159 69.6809 71.5467C69.1886 72.2775 68.8337 73.0485 68.6163 73.8597C68.4562 74.4572 68.4487 74.9505 68.5938 75.3399C68.6962 75.6369 68.9014 75.8267 69.2096 75.9093C69.9453 76.1064 70.938 75.9107 72.1876 75.3222ZM78.5682 69.1662L80.2222 68.9927L78.8354 71.4519L80.788 71.9751L80.4576 72.6044L78.505 72.0812L76.8282 75.0188C76.3159 75.8993 76.0101 76.525 75.9106 76.896C75.8652 77.0658 75.8669 77.1977 75.9158 77.2917C75.9711 77.3874 76.0616 77.4521 76.1874 77.4858C76.3823 77.538 76.7122 77.5017 77.177 77.3769C77.7878 77.2103 78.3844 76.9961 78.9668 76.7343L79.209 77.2642C77.5538 77.9328 76.4623 78.3211 75.9346 78.4291C75.4069 78.5371 75.0016 78.5532 74.7186 78.4773C74.4859 78.415 74.3231 78.2804 74.2303 78.0735C74.1437 77.8683 74.1518 77.5739 74.2546 77.1903C74.3759 76.7376 74.6808 76.0778 75.1691 75.2112L77.1467 71.7172L75.6185 71.3078L75.9678 70.6835L77.4865 71.0904L78.5682 69.1662ZM86.2557 72.7729C86.8154 72.9228 87.2167 73.1483 87.4595 73.4493C87.7104 73.7457 87.7979 74.0354 87.7221 74.3183C87.6766 74.4881 87.5709 74.6182 87.4052 74.7086C87.2457 74.8007 87.0748 74.8223 86.8924 74.7734C86.7729 74.7414 86.6759 74.6885 86.6014 74.6146C86.5285 74.5344 86.4389 74.3655 86.3327 74.1078C86.1341 73.6165 85.8839 73.3304 85.582 73.2495C85.3242 73.1804 85.0677 73.2196 84.8125 73.3669C84.5654 73.5096 84.4022 73.7287 84.323 74.0243C84.2539 74.2821 84.2494 74.5505 84.3094 74.8295C84.3712 75.1021 84.5843 75.5771 84.9487 76.2544C85.4479 77.1835 85.6082 77.9813 85.4296 78.6479C85.251 79.3145 84.8113 79.8235 84.1105 80.175C83.4115 80.5201 82.6154 80.5731 81.7224 80.3338C80.9741 80.1333 80.458 79.8332 80.1741 79.4336C79.892 79.0278 79.8107 78.6016 79.9303 78.1551C79.9893 77.935 80.1074 77.7712 80.2845 77.6636C80.4616 77.556 80.6507 77.5292 80.852 77.5831C81.028 77.6303 81.163 77.7305 81.2567 77.8837C81.3522 78.0306 81.3788 78.1826 81.3367 78.3398C81.3198 78.4027 81.2917 78.4828 81.2521 78.58C81.2239 78.6601 81.2022 78.7284 81.1871 78.785C81.1315 78.9926 81.1723 79.1922 81.3097 79.384C81.4407 79.5742 81.654 79.7088 81.9496 79.788C82.2891 79.879 82.603 79.9025 82.8912 79.8584C83.181 79.808 83.4294 79.6858 83.6364 79.4919C83.8451 79.2917 83.9806 79.0752 84.0429 78.8425C84.1036 78.6162 84.0951 78.3712 84.0174 78.1078C83.946 77.846 83.7444 77.3909 83.4126 76.7426C82.9541 75.8379 82.8149 75.0491 82.9952 74.3762C83.1604 73.7599 83.5528 73.2888 84.1726 72.9629C84.7941 72.6306 85.4885 72.5673 86.2557 72.7729Z" fill="white"/>
</svg>
