<svg width="722" height="1083" viewBox="0 0 722 1083" fill="none" xmlns="http://www.w3.org/2000/svg">
<path d="M-412.132 813.792C-190.941 787.839 160.322 720.402 54.4601 319.542C-80.2565 -190.582 -625.448 -146.776 -330.985 -478.844M-337.292 831.559C-116.125 805.745 235.091 738.59 129.08 338.617C-5.82541 -170.376 -550.968 -126.866 -256.65 -458.062M-264.472 861.386C-43.2811 835.433 307.982 767.996 202.12 367.135C67.4035 -142.988 -477.788 -99.1819 -183.325 -431.251M-193.547 890.919C27.6203 865.105 378.836 797.95 272.826 397.977C137.92 -111.016 -407.222 -67.5063 -112.905 -398.703M-123.632 926.481C97.5351 900.667 448.751 833.512 342.741 433.539C207.835 -75.4538 -337.308 -31.9438 -42.9897 -363.14M-51.8204 962.338C169.37 936.384 520.633 868.948 414.771 468.087C280.055 -42.0362 -265.137 1.77 29.3267 -330.299M18.5993 994.885C239.767 969.071 590.983 901.916 484.972 501.944C350.066 -7.04974 -195.076 36.4602 99.2418 -294.736M89.0193 1027.43C310.21 1001.48 661.473 934.044 555.611 533.183C420.894 23.0598 -124.297 66.866 170.166 -265.203M162.345 1054.24C383.512 1028.43 734.728 961.275 628.718 561.303C493.812 52.3096 -51.3305 95.8196 242.987 -235.377M235.079 1080.97C455.59 1055.05 805.777 987.735 700.29 587.844C566.051 78.9535 22.5366 122.715 316.131 -208.593" stroke="url(#paint0_linear_80_1980)" style="" stroke-width="4"/>
<defs>
<linearGradient id="paint0_linear_80_1980" x1="151.316" y1="-478.844" x2="134" y2="1154.5" gradientUnits="userSpaceOnUse">
<stop stop-color="white" style="stop-color:white;stop-color:white;stop-opacity:1;"/>
<stop offset="1" stop-color="white" stop-opacity="0.1" style="stop-color:white;stop-color:white;stop-opacity:0.1;"/>
</linearGradient>
</defs>
</svg>
